<svg width="46" height="59" viewBox="0 0 46 59" fill="none" xmlns="http://www.w3.org/2000/svg">
<mask id="mask0_206_191" style="mask-type:luminance" maskUnits="userSpaceOnUse" x="9" y="0" width="27" height="31">
<path d="M9.20764 0.289307H35.3586V30.739H9.20764V0.289307Z" fill="white"/>
</mask>
<g mask="url(#mask0_206_191)">
<path d="M22.8304 30.3092C29.5213 30.3092 34.9719 22.0852 34.9719 14.3405C34.9719 6.59581 29.5213 0.289307 22.8304 0.289307C16.1321 0.289307 10.6888 6.59581 10.6888 14.3405C10.6888 22.0852 16.1321 30.3092 22.8304 30.3092Z" fill="black"/>
</g>
<mask id="mask1_206_191" style="mask-type:luminance" maskUnits="userSpaceOnUse" x="0" y="28" width="46" height="31">
<path d="M0.0430908 28.623H45.6102V58.1718H0.0430908V28.623Z" fill="white"/>
</mask>
<g mask="url(#mask1_206_191)">
<path d="M31.9438 30.458C29.587 32.5326 26.6465 33.7642 23.4652 33.7642H22.1883C19.007 33.7642 16.0664 32.5326 13.7096 30.458C6.01904 31.8962 0.152588 39.6078 0.152588 48.9146C0.152588 54.0227 10.3021 58.1719 22.8304 58.1719C35.3513 58.1719 45.5081 54.0227 45.5081 48.9146C45.5081 39.6078 39.6344 31.8962 31.9438 30.458Z" fill="black"/>
</g>
</svg>
