<svg width="193" height="45" viewBox="0 0 193 45" fill="none" xmlns="http://www.w3.org/2000/svg">
<mask id="mask0_240_1197" style="mask-type:luminance" maskUnits="userSpaceOnUse" x="0" y="0" width="193" height="45">
<path d="M192.267 0.700012H0.266663V44.7H192.267V0.700012Z" fill="white"/>
</mask>
<g mask="url(#mask0_240_1197)">
<mask id="mask1_240_1197" style="mask-type:luminance" maskUnits="userSpaceOnUse" x="1" y="1" width="191" height="42">
<path d="M1.11562 1.06459H191.689V42.9344H1.11562V1.06459Z" fill="white"/>
</mask>
<g mask="url(#mask1_240_1197)">
<path fill-rule="evenodd" clip-rule="evenodd" d="M1.11562 5.90313C1.11562 3.23126 3.27708 1.06459 5.94895 1.06459H186.85C189.522 1.06459 191.689 3.23126 191.689 5.90313V38.5281C191.689 41.2 189.522 43.3667 186.85 43.3667H5.94895C3.27708 43.3667 1.11562 41.2 1.11562 38.5281V5.90313Z" fill="#32076C"/>
</g>
<path fill-rule="evenodd" clip-rule="evenodd" d="M3.90208 6.04375C3.90208 4.6375 5.0427 3.49167 6.45416 3.49167H186.345C187.756 3.49167 188.902 4.6375 188.902 6.04375V38.3823C188.902 39.7938 187.756 40.9396 186.345 40.9396H6.45416C5.0427 40.9396 3.90208 39.7938 3.90208 38.3823V6.04375Z" fill="#00BF63"/>
<path fill-rule="evenodd" clip-rule="evenodd" d="M38.2719 25.8458C37.9437 25.8458 37.6781 26.1115 37.6781 26.4448V27.6167H36.501C36.1729 27.6167 35.9021 27.8875 35.9021 28.2156C35.9021 28.549 36.1729 28.8146 36.501 28.8146H37.6781V29.9865C37.6781 30.3198 37.9437 30.5906 38.2719 30.5906C38.6052 30.5906 38.876 30.3198 38.876 29.9865V28.8146H40.0479C40.376 28.8146 40.6417 28.549 40.6417 28.2156C40.6417 27.8875 40.376 27.6167 40.0479 27.6167H38.876V26.4448C38.876 26.1115 38.6052 25.8458 38.2719 25.8458ZM38.2719 24.351C40.4073 24.351 42.1365 26.0802 42.1365 28.2156C42.1365 30.351 40.4073 32.0802 38.2719 32.0802C36.1417 32.0802 34.4125 30.351 34.4125 28.2156C34.4125 26.0802 36.1417 24.351 38.2719 24.351ZM21.7406 21.9604L22.1052 22.3667C23.6 23.8615 25.6625 24.7885 27.9437 24.7885C30.225 24.7885 32.2927 23.8615 33.7875 22.3667L34.1521 21.9604L34.3135 21.9865C35.4437 22.2156 36.4646 22.7365 37.3031 23.4604L37.5531 23.7L37.2354 23.7469C35.074 24.1792 33.4437 26.0333 33.4437 28.2573C33.4437 30.799 35.574 32.8563 38.1937 32.8563C38.5219 32.8563 38.8396 32.825 39.1469 32.7625L39.5844 32.6531V34.2833C39.5844 34.7156 39.2302 35.0646 38.8031 35.0646H17.0896C16.6573 35.0646 16.3083 34.7156 16.3083 34.2833V28.4552C16.3083 25.2625 18.5687 22.601 21.5792 21.9865L21.7406 21.9604ZM27.9437 9.36667C31.8917 9.36667 35.0948 12.5698 35.0948 16.5177C35.0948 20.4708 31.8917 23.674 27.9437 23.674C23.9958 23.674 20.7979 20.4708 20.7979 16.5177C20.7979 12.5698 23.9958 9.36667 27.9437 9.36667Z" fill="#32076C"/>
</g>
</svg>
