<svg width="33" height="37" viewBox="0 0 33 37" fill="none" xmlns="http://www.w3.org/2000/svg">
<mask id="mask0_240_1477" style="mask-type:luminance" maskUnits="userSpaceOnUse" x="0" y="0" width="33" height="37">
<path d="M32.6 0.0333557H0.599976V36.0334H32.6V0.0333557Z" fill="white"/>
</mask>
<g mask="url(#mask0_240_1477)">
<mask id="mask1_240_1477" style="mask-type:luminance" maskUnits="userSpaceOnUse" x="1" y="0" width="30" height="35">
<path d="M1.57393 0.856266H30.5166V34.7938H1.57393V0.856266Z" fill="white"/>
</mask>
<g mask="url(#mask1_240_1477)">
<path fill-rule="evenodd" clip-rule="evenodd" d="M15.2562 27.6011C14.7823 26.7 14.5323 25.6948 14.5323 24.6636C14.5323 21.174 17.376 18.3302 20.8656 18.3302C21.8968 18.3302 22.9021 18.5854 23.8031 19.0542L15.2562 27.6011ZM25.1468 18.8979C25.1312 18.7469 25.0479 18.6115 24.9177 18.5229C23.7146 17.7261 22.3135 17.3042 20.8656 17.3042C16.8083 17.3042 13.5062 20.6063 13.5062 24.6636C13.5062 26.1115 13.9281 27.5177 14.725 28.7209C14.9073 28.9917 15.2875 29.0229 15.5166 28.799L24.9958 19.3146C25.1052 19.2052 25.1625 19.0542 25.1468 18.8979ZM20.8656 30.9917C24.3552 30.9917 27.1937 28.1584 27.1937 24.6636C27.1937 23.6323 26.9437 22.6271 26.4698 21.7261L17.9229 30.2729C18.8291 30.7469 19.8343 30.9917 20.8656 30.9917ZM27.0062 20.6115C26.8239 20.3406 26.4437 20.3042 26.2146 20.5333L16.7302 30.0125C16.501 30.2417 16.5375 30.6271 16.8083 30.8042C18.0166 31.6011 19.4177 32.0229 20.8656 32.0229C24.9229 32.0229 28.2198 28.7209 28.2198 24.6636C28.2198 23.2156 27.8031 21.8146 27.0062 20.6115ZM27.2823 31.0854C30.8291 27.5386 30.8291 21.7938 27.2823 18.2469C23.7458 14.7052 17.9802 14.7052 14.4437 18.2469C10.8968 21.7938 10.8968 27.5386 14.4437 31.0854C17.9854 34.6219 23.7458 34.6219 27.2823 31.0854ZM3.92289 28.0021H11.3239C10.9541 26.9448 10.7614 25.8198 10.7614 24.6636C10.7614 19.3354 14.8604 14.9969 20.0739 14.5958C18.1781 12.5438 15.4802 11.3458 12.6833 11.3458C7.13122 11.3458 2.6156 15.8615 2.6156 21.4083V26.6948C2.6156 27.4136 3.20414 28.0021 3.92289 28.0021ZM8.46976 6.10106C8.46976 3.77293 10.3604 1.88231 12.6833 1.88231C15.0114 1.88231 16.9021 3.77293 16.9021 6.10106C16.9021 8.42397 15.0114 10.3146 12.6833 10.3146C10.3604 10.3146 8.46976 8.42397 8.46976 6.10106ZM28.0114 17.5177C26.1781 15.6844 23.8135 14.7104 21.4125 14.5802C19.876 12.6219 17.7302 11.2208 15.3135 10.6323C16.876 9.72606 17.9281 8.03335 17.9281 6.10106C17.9281 3.21043 15.5791 0.856266 12.6833 0.856266C9.79268 0.856266 7.44372 3.21043 7.44372 6.10106C7.44372 8.03335 8.4906 9.72085 10.0531 10.6271C8.09997 11.1063 6.3083 12.1167 4.84476 13.575C2.7458 15.6792 1.58955 18.4604 1.58955 21.4083V26.6948C1.58955 27.9813 2.63643 29.0334 3.92289 29.0334H11.7458C13.4489 32.5802 17.0166 34.7625 20.8656 34.7625C26.4073 34.7625 30.9698 30.299 30.9698 24.6636C30.9698 21.9656 29.9177 19.4292 28.0114 17.5177Z" fill="#32076C"/>
</g>
</g>
</svg>
