<svg width="34" height="28" viewBox="0 0 34 28" fill="none" xmlns="http://www.w3.org/2000/svg">
<mask id="mask0_240_1269" style="mask-type:luminance" maskUnits="userSpaceOnUse" x="0" y="0" width="34" height="28">
<path d="M33.5999 0.366669H0.266602V27.0333H33.5999V0.366669Z" fill="white"/>
</mask>
<g mask="url(#mask0_240_1269)">
<mask id="mask1_240_1269" style="mask-type:luminance" maskUnits="userSpaceOnUse" x="0" y="0" width="32" height="26">
<path d="M0.77702 0.976039H31.7197V25.7H0.77702V0.976039Z" fill="white"/>
</mask>
<g mask="url(#mask1_240_1269)">
<path d="M25.126 13.7937C27.1676 12.6115 28.5426 10.3979 28.5426 7.87708C28.5426 4.10104 25.4749 1.03333 21.7041 1.03333C17.9333 1.03333 14.8656 4.10104 14.8656 7.87708C14.8656 10.3979 16.2406 12.6115 18.2822 13.7937C17.0843 14.2104 15.9854 14.8458 15.027 15.6375C14.2926 14.7573 13.376 14.0333 12.3343 13.5333C13.5218 12.5333 14.2822 11.0385 14.2822 9.36666C14.2822 6.36666 11.8395 3.92916 8.83952 3.92916C5.84473 3.92916 3.40202 6.36666 3.40202 9.36666C3.40202 11.0385 4.16243 12.5333 5.34993 13.5333C2.64681 14.8354 0.782227 17.601 0.782227 20.799C0.782227 21.7833 1.5791 22.5802 2.56348 22.5802H11.2979C11.2979 22.5802 11.2979 22.5802 11.2979 22.575C11.2614 22.9448 11.2354 23.3146 11.2354 23.6896C11.2354 24.6792 12.0322 25.476 13.0166 25.476H30.3916C31.376 25.476 32.1729 24.6792 32.1729 23.6896C32.1729 19.1167 29.2249 15.2156 25.126 13.7937ZM16.6468 7.87708C16.6468 5.08021 18.9124 2.81979 21.7041 2.81979C24.4958 2.81979 26.7614 5.08021 26.7614 7.87708C26.7614 10.6687 24.4958 12.9292 21.7041 12.9292C18.9124 12.9292 16.6468 10.6687 16.6468 7.87708ZM5.18848 9.36666C5.18848 7.34583 6.82389 5.71041 8.83952 5.71041C10.8604 5.71041 12.4958 7.34583 12.4958 9.36666C12.4958 11.3875 10.8604 13.0229 8.83952 13.0229C6.82389 13.0229 5.18848 11.3875 5.18848 9.36666ZM11.6468 20.799H2.56348C2.56348 17.3302 5.37598 14.5177 8.83952 14.5177C10.8291 14.5177 12.5999 15.45 13.751 16.8927C13.7562 16.8875 13.7562 16.8823 13.7614 16.8823C12.7926 18.0073 12.0687 19.3354 11.6468 20.799ZM13.0166 23.6896C13.0166 18.8927 16.9072 15.0073 21.7041 15.0073C26.501 15.0073 30.3916 18.8927 30.3916 23.6896H13.0166Z" fill="#32076C"/>
</g>
</g>
</svg>
