<svg width="33" height="32" viewBox="0 0 33 32" fill="none" xmlns="http://www.w3.org/2000/svg">
<mask id="mask0_240_1402" style="mask-type:luminance" maskUnits="userSpaceOnUse" x="0" y="0" width="33" height="32">
<path d="M32.6 0.700012H0.599976V31.3667H32.6V0.700012Z" fill="white"/>
</mask>
<g mask="url(#mask0_240_1402)">
<mask id="mask1_240_1402" style="mask-type:luminance" maskUnits="userSpaceOnUse" x="0" y="0" width="31" height="31">
<path d="M0.865601 0.976059H30.8083V30.9188H0.865601V0.976059Z" fill="white"/>
</mask>
<g mask="url(#mask1_240_1402)">
<path fill-rule="evenodd" clip-rule="evenodd" d="M5.99581 0.976059C5.05831 0.976059 4.28748 1.74689 4.28748 2.68439V11.3302L1.62602 13.1063C1.15206 13.4188 0.865601 13.9552 0.865601 14.5281V29.3771C0.865601 30.3146 1.63643 31.0906 2.57393 31.0906H29.2666C30.2041 31.0906 30.9802 30.3146 30.9802 29.3771V14.5281C30.9802 13.9552 30.6937 13.4188 30.2198 13.1063L27.5583 11.3302V2.68439C27.5583 1.74689 26.7823 0.976059 25.8448 0.976059H5.99581ZM5.99581 2.34585H25.8448C26.0427 2.34585 26.1885 2.49168 26.1885 2.68439V15.2209C23.1208 16.8667 17.9281 19.6531 16.0844 20.6427C15.9802 20.7 15.8604 20.7 15.7614 20.6427C13.9177 19.6531 8.72498 16.8667 5.65727 15.2209V2.68439C5.65727 2.49168 5.8031 2.34585 5.99581 2.34585ZM4.28748 12.9761V14.4865C4.02706 14.3511 3.14685 13.8771 3.03227 13.8146L4.28748 12.9761ZM27.5583 12.9761L28.8135 13.8146C28.6989 13.8771 27.8187 14.3511 27.5583 14.4865V12.9761ZM13.1416 20.7886C13.8031 21.1479 14.751 21.6584 15.1156 21.8511C15.6156 22.1219 16.225 22.1219 16.7302 21.8511C17.0896 21.6584 18.0375 21.1479 18.7041 20.7886L28.5583 29.7209H3.28748L13.1416 20.7886Z" fill="#32076C"/>
</g>
<path d="M14.5531 3.71043C13.0479 3.71043 11.8135 4.94481 11.8135 6.45002C11.8135 7.95523 13.0479 9.1896 14.5531 9.1896C16.0583 9.1896 17.2927 7.95523 17.2927 6.45002C17.2927 4.94481 16.0583 3.71043 14.5531 3.71043Z" fill="#32076C"/>
<path d="M14.5531 9.87189C11.9333 9.87189 9.73538 11.7156 9.20413 14.1844C9.09476 14.6792 9.23538 15.1479 9.46976 15.5229C9.70413 15.9031 10.0427 16.2104 10.4906 16.3667C13.277 17.3354 16.0062 17.2313 18.6 16.3563C19.0531 16.2052 19.3968 15.8979 19.6364 15.5229C19.8708 15.1531 20.0114 14.6792 19.902 14.1844C19.3708 11.7156 17.1729 9.87189 14.5531 9.87189Z" fill="#32076C"/>
<path d="M20.0271 7.13231C19.8396 7.13231 19.6781 7.20002 19.5427 7.33543C19.4125 7.47085 19.3448 7.63231 19.3448 7.81981V8.5021H18.6573C18.4698 8.5021 18.3083 8.56981 18.1781 8.70522C18.0427 8.83543 17.975 8.99689 17.975 9.1896C17.975 9.3771 18.0427 9.53856 18.1781 9.67398C18.3083 9.80418 18.4698 9.87189 18.6573 9.87189H19.3448V10.5542C19.3448 10.7469 19.4125 10.9083 19.5427 11.0386C19.6781 11.174 19.8396 11.2417 20.0271 11.2417C20.2198 11.2417 20.3812 11.174 20.5114 11.0386C20.6468 10.9083 20.7146 10.7469 20.7146 10.5542V9.87189H21.3969C21.5844 9.87189 21.7458 9.80418 21.8812 9.67398C22.0166 9.53856 22.0844 9.3771 22.0844 9.1896C22.0844 8.99689 22.0166 8.83543 21.8812 8.70522C21.7458 8.56981 21.5844 8.5021 21.3969 8.5021H20.7146V7.81981C20.7146 7.63231 20.6468 7.47085 20.5114 7.33543C20.3812 7.20002 20.2198 7.13231 20.0271 7.13231Z" fill="#32076C"/>
</g>
</svg>
