<svg width="32" height="32" viewBox="0 0 32 32" fill="none" xmlns="http://www.w3.org/2000/svg">
<mask id="mask0_240_1331" style="mask-type:luminance" maskUnits="userSpaceOnUse" x="0" y="0" width="32" height="32">
<path d="M31.6 0.700012H0.933289V31.3667H31.6V0.700012Z" fill="white"/>
</mask>
<g mask="url(#mask0_240_1331)">
<mask id="mask1_240_1331" style="mask-type:luminance" maskUnits="userSpaceOnUse" x="1" y="1" width="27" height="30">
<path d="M1.78224 1.17397H27.6V30.9969H1.78224V1.17397Z" fill="white"/>
</mask>
<g mask="url(#mask1_240_1331)">
<path d="M23.9645 1.27294C23.6989 1.35106 23.2979 1.76773 23.2093 2.0594C23.1052 2.40835 23.1208 2.54377 23.3135 3.08023C23.4124 3.34065 23.4906 3.5646 23.4906 3.57502C23.4906 3.58544 23.2302 3.46565 22.9229 3.3094C21.4281 2.5646 19.9177 2.10106 18.1781 1.8771C17.2822 1.76252 15.5322 1.76252 14.5895 1.8771C10.3135 2.40835 6.48536 4.81981 4.10515 8.47606C2.99578 10.174 2.26661 12.1427 1.92807 14.2938C1.79786 15.1375 1.78224 17.4813 1.89682 18.2781C2.39682 21.6063 3.74057 24.3302 6.02703 26.6427C8.27182 28.9136 11.1156 30.3563 14.2979 30.8406C15.6885 31.049 18.1312 31.0021 18.6937 30.7521C19.1104 30.575 19.4177 30.0073 19.3343 29.5802C19.277 29.2625 18.9906 28.8667 18.7406 28.7469C18.4906 28.6271 18.4229 28.6167 16.9177 28.6896C13.501 28.8406 10.3031 27.6323 7.84995 25.2573C6.72495 24.1688 6.01661 23.2 5.33432 21.825C4.41245 19.9709 4.0114 18.075 4.07911 15.9552C4.18328 12.7834 5.41765 9.92398 7.64161 7.6844C9.27703 6.03856 11.2562 4.92398 13.5114 4.3719C14.4072 4.15835 15.3031 4.0594 16.4385 4.0594C18.3916 4.0594 20.1572 4.45523 21.7354 5.2521L22.2302 5.49169L22.0062 5.56981C21.8812 5.61148 21.6677 5.7521 21.527 5.8771C20.7197 6.6219 21.2406 7.95523 22.3447 7.95523C22.7249 7.95523 26.1052 6.90835 26.3656 6.71044C26.6624 6.48127 26.8135 6.14794 26.8135 5.72606C26.8135 5.42919 26.7302 5.15315 26.1364 3.59065C25.402 1.66877 25.3239 1.53335 24.8552 1.31981C24.6052 1.20002 24.2666 1.1844 23.9645 1.27294Z" fill="#32076C"/>
</g>
<path d="M27.1989 8.0698C26.7979 8.28334 26.5166 8.84584 26.6 9.25209C26.6208 9.35626 26.7979 9.71042 26.9958 10.0438C27.1885 10.3771 27.4541 10.8927 27.5947 11.174C27.8552 11.7469 28.0479 11.9656 28.3864 12.1063C28.6729 12.2313 28.9333 12.2208 29.2145 12.0906C29.6729 11.8823 29.8864 11.5385 29.8864 11.0177C29.8864 10.7677 29.8239 10.5958 29.4854 9.90834C28.902 8.72605 28.5635 8.23126 28.2458 8.08021C27.9177 7.91876 27.4906 7.91876 27.1989 8.0698Z" fill="#32076C"/>
<path d="M14.9177 9.37709C14.6416 9.47605 14.3708 9.72084 14.2614 9.97084C14.1989 10.1219 14.1833 10.9031 14.1833 14.2365C14.1833 18.6792 14.1729 18.5229 14.5218 18.8458C14.6312 18.95 15.7145 19.4656 17.5322 20.2677C20.0062 21.3563 20.4177 21.5177 20.6729 21.5229C21.6781 21.5281 22.1677 20.3042 21.4333 19.6063C21.3083 19.476 20.527 19.101 18.8656 18.3771L16.4802 17.3302L16.4489 13.7313C16.4229 9.78855 16.4385 9.98646 16.0635 9.62709C15.7302 9.31459 15.3395 9.22605 14.9177 9.37709Z" fill="#32076C"/>
<mask id="mask2_240_1331" style="mask-type:luminance" maskUnits="userSpaceOnUse" x="27" y="14" width="4" height="6">
<path d="M27.5999 14.0333H30.7249V19.3667H27.5999V14.0333Z" fill="white"/>
</mask>
<g mask="url(#mask2_240_1331)">
<path d="M29.3916 14.4031C29.126 14.5281 28.876 14.7781 28.7927 14.9969C28.7562 15.0802 28.7249 15.799 28.7093 16.6011L28.6937 18.0646L28.8656 18.3146C29.0999 18.6427 29.4229 18.799 29.8395 18.799C30.277 18.7938 30.6052 18.5802 30.8187 18.1636C30.9593 17.8771 30.9593 17.8458 30.9593 16.5021C30.9593 15.174 30.9541 15.1323 30.8239 14.8927C30.5218 14.3615 29.9229 14.1583 29.3916 14.4031Z" fill="#32076C"/>
</g>
<path d="M28.1989 20.9865C27.9489 21.0854 27.7302 21.3406 27.4906 21.825C27.3604 22.0802 27.0687 22.6063 26.8395 22.9865C26.4541 23.6271 26.4229 23.7104 26.4229 24.0073C26.4333 24.6115 26.8447 25.0594 27.4437 25.1011C27.9906 25.1427 28.251 24.9813 28.652 24.3615C28.8343 24.0906 29.1572 23.5125 29.3812 23.0802C29.7614 22.3302 29.7822 22.2834 29.7562 21.9656C29.7093 21.3406 29.2614 20.9188 28.6572 20.9292C28.4854 20.9292 28.2822 20.9604 28.1989 20.9865Z" fill="#32076C"/>
<path d="M24.1104 26.1584C24.0218 26.1896 23.7197 26.3615 23.4437 26.5542C23.1625 26.7469 22.6833 27.0386 22.3812 27.2052C21.7302 27.5594 21.652 27.6323 21.5062 27.9136C21.3135 28.2886 21.3968 28.8927 21.6729 29.2C21.8552 29.4031 22.1937 29.5334 22.5218 29.5334C22.9072 29.5334 23.3604 29.3094 24.4854 28.5698C25.2614 28.0594 25.4125 27.9031 25.5218 27.5073C25.7406 26.6948 24.9229 25.9136 24.1104 26.1584Z" fill="#32076C"/>
</g>
</svg>
